# xmcd CD database file
#
# Track frame offsets:
#	150
#	16125
#	29100
#	47475
#	58800
#	79649
#	97799
#	107624
#	115799
#	123974
#	143174
#	156749
#	167099
#
# Disc length: 2407 seconds
#
# Revision: 0
# Processed by: cddbd v1.5.1PL0 Copyright (c) Steve Scherf et al.
# Submitted via: CDex 1.50beta9
#
DISCID=a409650d
DTITLE=Buckaroo Balladeers - Tehachapi
DYEAR=2003
DGENRE=Country
TTITLE0=Tehachapi
TTITLE1=Pico De Gallo
TTITLE2=Sueno
TTITLE3=Spurs That Jingle, Jangle, Jingle
TTITLE4=Streets Of Laredo
TTITLE5=Buckaroo's Coffee, Cowboy's Cup Of Coffee
TTITLE6=Don't Fence Me In
TTITLE7=Beaumont Rag
TTITLE8=Buffalo Gals
TTITLE9=Darcy Farrow
TTITLE10=Home Grown Tomatoes
TTITLE11=Back In The Saddle
TTITLE12=Ain't It Amazin' What A Little Tequila Can Do
EXTD=YEAR: 2003
EXTT0=
EXTT1=
EXTT2=
EXTT3=
EXTT4=
EXTT5=
EXTT6=
EXTT7=
EXTT8=
EXTT9=
EXTT10=
EXTT11=
EXTT12=
PLAYORDER=
